<svg xmlns="http://www.w3.org/2000/svg" width="392.194" height="311.398">
 <switch>
  <g id="svg_1">
   <g id="Layer_1">
    <g id="svg_2">
     <path d="m204.539993,0.02c-10.763992,7.776 -20.735001,16.307999 -30.491989,26.279999c-9.792007,9.827999 -15.227997,18.504002 -27.684006,32.832001c-12.744003,14.364002 -32.687996,37.007999 -46.907997,52.523998c-14.112,15.264 -25.632004,26.640007 -37.044003,39.420006c-11.52,12.707993 -21.023998,24.408997 -31.427999,37.042999c-10.547998,12.709 -20.591999,25.30899 -30.960009,38.483994c17.49601,15.876999 35.784009,29.59201 55.836011,41.725006c19.979996,12.131012 35.423996,23.218994 63.288002,30.492004c27.863991,7.126984 69.875999,14.255981 102.275993,12.203003c32.220001,-2.268005 65.951004,-15.119019 90.070999,-25.344025c23.868011,-10.366974 39.455994,-25.128998 52.992004,-36.106979c13.536011,-11.016006 22.536011,-20.736008 27.684998,-29.557007c-14.472992,-19.800995 -28.583984,-39.455002 -43.164001,-59.542999c-14.579987,-20.233002 -30.419983,-42.625 -43.632996,-60.516998c-13.355011,-17.891998 -23.938995,-30.996002 -35.640015,-45.972c-11.770996,-15.120003 -23.003983,-29.340002 -34.235992,-43.632002c-10.294998,-3.419 -20.626999,-6.875 -30.959,-10.331z" stroke-width="0.036" stroke-miterlimit="10" stroke="#000000" fill-rule="evenodd" clip-rule="evenodd" id="svg_3"/>
     <path d="m204.539993,5.204c-6.047989,3.852 -12.562988,8.964 -19.690994,15.48c-7.199997,6.552 -16.164001,15.156 -23.003998,23.435999c-6.876007,8.100002 -9.899994,15.624001 -17.820007,25.343998c-8.135986,9.756004 -18.647995,20.268005 -30.023994,32.364006c-11.592003,12.131996 -26.099998,26.135994 -37.979996,39.384003c-11.880005,13.067993 -22.716003,27.143997 -32.364002,38.483002c-9.649002,11.304993 -17.749001,20.556992 -24.877001,28.584c10.223999,8.712997 22.932001,17.640991 38.951998,27.216995c16.02,9.466995 35.424,23.075989 56.268002,29.554993c20.807999,6.480011 44.964005,9.324005 67.067993,8.929993c21.888,-0.64798 45.396011,-6.335999 63.324005,-12.204987c17.783997,-6.011993 27.252014,-12.707001 42.696014,-23.003998c15.371002,-10.367004 31.35498,-23.003998 48.778992,-38.447006c-16.774994,-25.595993 -35.640015,-53.964005 -57.708008,-86.759995c-22.138,-32.904999 -46.222,-68.329002 -73.619003,-108.361002z" stroke-width="0.036" stroke-miterlimit="10" stroke="#000000" fill-rule="evenodd" fill="#ff6666" clip-rule="evenodd" id="svg_4"/>
     <path d="m208.283997,3.8l24.408005,10.296c22.067993,26.711999 44.207993,54.575997 67.535995,85.391999c23.364014,30.816002 46.619995,62.639 71.279999,97.558998l-29.557007,2.34201c-24.227997,-35.31601 -46.942993,-68.437012 -69.40799,-101.305008c-22.462997,-32.867996 -43.559006,-63.792 -64.259003,-94.284z" stroke-width="0.036" stroke-miterlimit="10" stroke="#000000" fill-rule="evenodd" fill="#ff6666" clip-rule="evenodd" id="svg_5"/>
     <path d="m373.381012,200.324005l-29.521027,2.339996l7.488007,15.946991l34.235016,0.936005l-12.201996,-19.222992z" stroke-width="0.036" stroke-miterlimit="10" stroke="#000000" fill-rule="evenodd" fill="#c2ff80" clip-rule="evenodd" id="svg_6"/>
     <path d="m350.881012,222.354996c-0.900024,3.852005 -7.524017,10.225006 -20.160004,19.26001c-12.81601,9.108994 -33.084015,25.344009 -55.368011,34.705002c-22.463989,9.143005 -51.40799,17.207001 -77.399994,20.160004c-25.992004,2.878998 -51.12001,1.942993 -76.896004,-2.809021c8.028008,4.28302 19.403999,7.561005 34.704002,9.828003c15.227997,2.304993 35.423996,5.688019 56.268005,3.779022c20.80899,-2.160004 45.719986,-7.848022 67.535995,-15.947021c21.743988,-8.281006 44.783997,-21.204987 61.919983,-32.36499c16.956024,-11.158005 29.916016,-22.139008 39.420013,-33.768005c-10.009003,-0.93399 -20.015991,-1.869995 -30.023987,-2.843002z" stroke-width="0.036" stroke-miterlimit="10" stroke="#000000" fill-rule="evenodd" fill="#408000" clip-rule="evenodd" id="svg_7"/>
     <path d="m338.677002,204.535004l7.52301,15.479996c-17.748016,16.957001 -36.611023,30.889008 -57.708008,42.228989c-21.167999,11.268005 -43.416,20.160004 -68.003998,25.307007c-24.73201,4.968994 -54.432007,6.912018 -78.804001,4.71701c-24.552002,-2.339996 -43.704002,-7.235992 -66.600006,-18.287018c-22.860001,-11.231995 -45.684,-26.856995 -69.444,-47.845993l9.864,-12.671997c15.048,12.419998 30.671999,23.221008 47.844,32.832001c17.028,9.503998 33.840004,19.151993 53.928001,24.373001c20.087997,5.14801 44.244003,7.343994 65.664001,6.588013c21.313004,-0.792999 41.328003,-4.031006 61.451996,-11.268005c20.088013,-7.453003 41.687988,-22.033005 57.708008,-32.365005c15.839996,-10.367004 27.755981,-19.835999 36.576996,-29.087997z" stroke-width="0.036" stroke-miterlimit="10" stroke="#000000" fill-rule="evenodd" fill="#c2ff80" clip-rule="evenodd" id="svg_8"/>
     <path d="m165.587997,121.052002c-2.304001,0.503998 -6.731995,10.007996 -8.423996,14.076004c-1.871994,3.959991 -3.744003,7.73999 -1.871994,9.395996c1.90799,1.475998 10.979996,1.440002 13.607986,-0.503998c2.448013,-2.195999 1.944,-7.812012 1.404007,-11.699997c-0.612,-3.888 -2.555008,-11.808006 -4.716003,-11.268005z" stroke-width="0.036" stroke-miterlimit="10" stroke="#000000" fill-rule="evenodd" clip-rule="evenodd" id="svg_9"/>
     <path d="m253.320007,59.132c1.115997,2.664001 2.772003,6.948002 4.679993,9.396c1.800995,2.304001 6.013,5.760002 6.119995,4.68c-0.106995,-1.188004 -3.996002,-7.811996 -6.119995,-11.268002c-2.195007,-3.563999 -5.723999,-8.855999 -6.552002,-9.359997c-0.791992,-0.432003 0.755997,3.743999 1.872009,6.551998z" stroke-width="0.036" stroke-miterlimit="10" stroke="#000000" fill-rule="evenodd" clip-rule="evenodd" id="svg_10"/>
     <path d="m279.563995,85.412003c1.080017,2.556 2.843994,7.019997 4.716003,9.360001c1.835999,2.303993 5.940002,6.047997 6.084015,4.715996c-0.144012,-1.584 -3.924011,-9.575996 -6.084015,-13.139999c-2.268005,-3.456001 -5.76001,-7.451996 -6.588013,-7.524002c-0.754974,-0.143997 0.649017,3.816002 1.872009,6.588005z" stroke-width="0.036" stroke-miterlimit="10" stroke="#000000" fill-rule="evenodd" clip-rule="evenodd" id="svg_11"/>
     <path d="m300.696014,124.795998c1.115997,2.664001 2.771973,6.948006 4.679993,9.396004c1.729004,2.412003 5.652008,5.363998 6.083984,4.679993c0.287994,-0.972 -1.654999,-6.371994 -3.742981,-9.827988c-2.232025,-3.564003 -7.740021,-10.080009 -8.893005,-10.800003c-1.187012,-0.684006 0.684998,3.815994 1.872009,6.551994z" stroke-width="0.036" stroke-miterlimit="10" stroke="#000000" fill-rule="evenodd" clip-rule="evenodd" id="svg_12"/>
     <path d="m242.520996,131.384003c-2.304001,0.503998 -6.731995,10.007996 -8.423996,14.076004c-1.835999,3.85199 -3.815994,7.847992 -1.908005,9.360001c1.908005,1.439987 10.979004,1.511993 13.608002,-0.468002c2.447006,-2.160004 1.943008,-7.884003 1.403,-11.736008c-0.647003,-3.923996 -2.483002,-11.735992 -4.679001,-11.231995z" stroke-width="0.036" stroke-miterlimit="10" stroke="#000000" fill-rule="evenodd" clip-rule="evenodd" id="svg_13"/>
     <path d="m214.367996,174.511993c-2.304001,0.504013 -6.731003,10.008011 -8.423996,14.076004c-1.871994,3.959 -3.744003,7.740005 -1.871994,9.395996c1.90799,1.439011 10.979996,1.512009 13.607986,-0.468994c2.448013,-2.160004 1.943008,-7.884995 1.403,-11.735992c-0.609985,-3.886002 -2.554993,-11.806 -4.714996,-11.267014z" stroke-width="0.036" stroke-miterlimit="10" stroke="#000000" fill-rule="evenodd" clip-rule="evenodd" id="svg_14"/>
     <path d="m114.468002,162.813004c-2.304001,0.503998 -6.732002,10.007996 -8.424004,14.076004c-1.835999,3.85199 -3.816002,7.847992 -1.907997,9.358994c1.907997,1.438995 10.979996,1.511993 13.608002,-0.468994c2.447998,-2.160004 1.944,-7.883011 1.403999,-11.736008c-0.648003,-3.923996 -2.483002,-11.733994 -4.68,-11.229996z" stroke-width="0.036" stroke-miterlimit="10" stroke="#000000" fill-rule="evenodd" clip-rule="evenodd" id="svg_15"/>
     <path d="m126.167999,105.103996c-2.015999,0.396004 -5.543999,8.352005 -7.092003,11.772003c-1.403999,3.239998 -3.311996,6.515999 -1.547997,7.884003c1.620003,1.259995 9.251999,1.223999 11.376007,-0.396004c1.944,-1.835999 1.691986,-6.587997 1.187988,-9.827995c-0.612,-3.312004 -2.050995,-9.828003 -3.923996,-9.432007z" stroke-width="0.036" stroke-miterlimit="10" stroke="#000000" fill-rule="evenodd" clip-rule="evenodd" id="svg_16"/>
     <path d="m170.880005,75.080002c-1.692001,0.360001 -4.896011,7.271996 -6.12001,10.187996c-1.259995,2.844002 -2.807999,5.580002 -1.332001,6.804001c1.404007,1.152 7.920013,0.936005 9.828003,-0.360001c1.800003,-1.547997 1.367996,-5.723999 1.044006,-8.495995c-0.46701,-2.880005 -1.800003,-8.460007 -3.419998,-8.136002z" stroke-width="0.036" stroke-miterlimit="10" stroke="#000000" fill-rule="evenodd" clip-rule="evenodd" id="svg_17"/>
     <path d="m203.712997,43.183998c-1.692001,0.360001 -4.895996,7.272003 -6.119995,10.188004c-1.26001,2.843998 -2.807999,5.579998 -1.333008,6.803997c1.404007,1.152 7.919998,0.936001 9.82901,-0.359997c1.800003,-1.548 1.366989,-5.724003 1.043991,-8.496002c-0.468994,-2.880001 -1.800995,-8.459999 -3.419998,-8.136002z" stroke-width="0.036" stroke-miterlimit="10" stroke="#000000" fill-rule="evenodd" clip-rule="evenodd" id="svg_18"/>
     <path d="m212.173004,97.112c-1.584,0.360001 -4.969009,7.272003 -6.12001,10.188004c-1.224991,2.843994 -2.87999,5.579994 -1.367996,6.803993c1.367996,1.152 8.028,0.936005 9.863998,-0.359993c1.835999,-1.476006 1.296005,-5.724007 1.008011,-8.460007c-0.433014,-2.843994 -1.836014,-8.531998 -3.384003,-8.171997z" stroke-width="0.036" stroke-miterlimit="10" stroke="#000000" fill-rule="evenodd" clip-rule="evenodd" id="svg_19"/>
     <path d="m159.503998,189.057007c-2.231995,0.503998 -6.804001,10.007996 -8.459991,14.07399c-1.872009,3.960999 -3.744003,7.740005 -1.872009,9.395996c1.908005,1.439011 10.979996,1.512009 13.608002,-0.466995c2.447998,-2.160004 1.944,-7.884995 1.404007,-11.735992c-0.647003,-3.888 -2.484009,-11.807999 -4.680008,-11.266998z" stroke-width="0.036" stroke-miterlimit="10" stroke="#000000" fill-rule="evenodd" clip-rule="evenodd" id="svg_20"/>
    </g>
   </g>
  </g>
 </switch>
 <g>
  <title>Layer 1</title>
 </g>
</svg>