<svg xmlns:dc="http://purl.org/dc/elements/1.1/" xmlns:cc="http://creativecommons.org/ns#" xmlns:rdf="http://www.w3.org/1999/02/22-rdf-syntax-ns#" xmlns:svg="http://www.w3.org/2000/svg" xmlns="http://www.w3.org/2000/svg" version="1.1" width="450" height="450" id="svg2">
  <defs id="defs4"/>
  <metadata id="metadata7">
    <rdf:RDF>
      <cc:Work rdf:about="">
        <dc:format>image/svg+xml</dc:format>
        <dc:type rdf:resource="http://purl.org/dc/dcmitype/StillImage"/>
        <dc:title/>
      </cc:Work>
    </rdf:RDF>
  </metadata>
  <g transform="translate(0,-602.35975)" id="layer1">
    <path d="m 546.44189,121.19541 a 194.93654,201.60104 0 0 1 -389.80066,-1.1562" transform="translate(-129.9577,702.32721)" id="path2985" style="fill:#228b22;fill-opacity:1;fill-rule:nonzero;stroke:none"/>
    <path d="m 546.48294,118.33172 a 194.93654,201.60104 0 0 1 -389.86381,-0.35699 l 194.93309,-1.19959 z" transform="matrix(0.87607321,0,0,0.87607321,-85.557895,718.45778)" id="path3765" style="fill:#f08080;fill-opacity:1;fill-rule:nonzero;stroke:none"/>
    <g transform="matrix(0.37910144,0.92535512,-0.92535512,0.37910144,893.255,301.22994)" id="g3809">
      <path d="m 184.46122,952.30544 14.35668,14.84703 c 0,0 6.63406,4.94875 9.15016,5.10378 3.59646,0.22187 5.91311,-4.43508 6.74541,-5.93546 0.83231,-1.50039 2.20387,-5.02386 1.64862,-7.06582 -0.95319,-3.50549 -3.0214,-3.43282 -3.0214,-3.43282 0,0 -0.78781,-1.02356 -7.076,-2.26949 -6.28816,-1.24592 -21.80347,-1.24722 -21.80347,-1.24722 z" id="path3842" style="fill:#000000;fill-opacity:1;stroke:#000000;stroke-width:0.5178026px;stroke-linecap:butt;stroke-linejoin:miter;stroke-opacity:1"/>
    </g>
    <g transform="matrix(0.37910144,0.92535512,-0.92535512,0.37910144,1184.8268,296.23156)" id="g3854">
      <path d="m 184.46122,952.30544 14.35668,14.84703 c 0,0 6.63406,4.94875 9.15016,5.10378 3.59646,0.22187 5.91311,-4.43508 6.74541,-5.93546 0.83231,-1.50039 2.20387,-5.02386 1.64862,-7.06582 -0.95319,-3.50549 -3.0214,-3.43282 -3.0214,-3.43282 0,0 -0.78781,-1.02356 -7.076,-2.26949 -6.28816,-1.24592 -21.80347,-1.24722 -21.80347,-1.24722 z" id="path3856" style="fill:#000000;fill-opacity:1;stroke:#000000;stroke-width:0.5178026px;stroke-linecap:butt;stroke-linejoin:miter;stroke-opacity:1"/>
    </g>
    <g transform="matrix(0.37910144,0.92535512,-0.92535512,0.37910144,1043.2062,349.54754)" id="g3858">
      <path d="m 184.46122,952.30544 14.35668,14.84703 c 0,0 6.63406,4.94875 9.15016,5.10378 3.59646,0.22187 5.91311,-4.43508 6.74541,-5.93546 0.83231,-1.50039 2.20387,-5.02386 1.64862,-7.06582 -0.95319,-3.50549 -3.0214,-3.43282 -3.0214,-3.43282 0,0 -0.78781,-1.02356 -7.076,-2.26949 -6.28816,-1.24592 -21.80347,-1.24722 -21.80347,-1.24722 z" id="path3860" style="fill:#000000;fill-opacity:1;stroke:#000000;stroke-width:0.5178026px;stroke-linecap:butt;stroke-linejoin:miter;stroke-opacity:1"/>
    </g>
    <g transform="matrix(0.37910144,0.92535512,-0.92535512,0.37910144,999.88696,297.89769)" id="g3862">
      <path d="m 184.46122,952.30544 14.35668,14.84703 c 0,0 6.63406,4.94875 9.15016,5.10378 3.59646,0.22187 5.91311,-4.43508 6.74541,-5.93546 0.83231,-1.50039 2.20387,-5.02386 1.64862,-7.06582 -0.95319,-3.50549 -3.0214,-3.43282 -3.0214,-3.43282 0,0 -0.78781,-1.02356 -7.076,-2.26949 -6.28816,-1.24592 -21.80347,-1.24722 -21.80347,-1.24722 z" id="path3864" style="fill:#000000;fill-opacity:1;stroke:#000000;stroke-width:0.5178026px;stroke-linecap:butt;stroke-linejoin:miter;stroke-opacity:1"/>
    </g>
    <g transform="matrix(0.37910144,0.92535512,-0.92535512,0.37910144,939.90647,349.54754)" id="g3866">
      <path d="m 184.46122,952.30544 14.35668,14.84703 c 0,0 6.63406,4.94875 9.15016,5.10378 3.59646,0.22187 5.91311,-4.43508 6.74541,-5.93546 0.83231,-1.50039 2.20387,-5.02386 1.64862,-7.06582 -0.95319,-3.50549 -3.0214,-3.43282 -3.0214,-3.43282 0,0 -0.78781,-1.02356 -7.076,-2.26949 -6.28816,-1.24592 -21.80347,-1.24722 -21.80347,-1.24722 z" id="path3868" style="fill:#000000;fill-opacity:1;stroke:#000000;stroke-width:0.5178026px;stroke-linecap:butt;stroke-linejoin:miter;stroke-opacity:1"/>
    </g>
    <g transform="matrix(0.37910144,0.92535512,-0.92535512,0.37910144,1103.1867,297.89768)" id="g3870">
      <path d="m 184.46122,952.30544 14.35668,14.84703 c 0,0 6.63406,4.94875 9.15016,5.10378 3.59646,0.22187 5.91311,-4.43508 6.74541,-5.93546 0.83231,-1.50039 2.20387,-5.02386 1.64862,-7.06582 -0.95319,-3.50549 -3.0214,-3.43282 -3.0214,-3.43282 0,0 -0.78781,-1.02356 -7.076,-2.26949 -6.28816,-1.24592 -21.80347,-1.24722 -21.80347,-1.24722 z" id="path3872" style="fill:#000000;fill-opacity:1;stroke:#000000;stroke-width:0.5178026px;stroke-linecap:butt;stroke-linejoin:miter;stroke-opacity:1"/>
    </g>
    <g transform="matrix(0.37910144,0.92535512,-0.92535512,0.37910144,1143.1736,346.21529)" id="g3874">
      <path d="m 184.46122,952.30544 14.35668,14.84703 c 0,0 6.63406,4.94875 9.15016,5.10378 3.59646,0.22187 5.91311,-4.43508 6.74541,-5.93546 0.83231,-1.50039 2.20387,-5.02386 1.64862,-7.06582 -0.95319,-3.50549 -3.0214,-3.43282 -3.0214,-3.43282 0,0 -0.78781,-1.02356 -7.076,-2.26949 -6.28816,-1.24592 -21.80347,-1.24722 -21.80347,-1.24722 z" id="path3876" style="fill:#000000;fill-opacity:1;stroke:#000000;stroke-width:0.5178026px;stroke-linecap:butt;stroke-linejoin:miter;stroke-opacity:1"/>
    </g>
    <g transform="matrix(0.37910144,0.92535512,-0.92535512,0.37910144,986.55796,391.20065)" id="g3878">
      <path d="m 184.46122,952.30544 14.35668,14.84703 c 0,0 6.63406,4.94875 9.15016,5.10378 3.59646,0.22187 5.91311,-4.43508 6.74541,-5.93546 0.83231,-1.50039 2.20387,-5.02386 1.64862,-7.06582 -0.95319,-3.50549 -3.0214,-3.43282 -3.0214,-3.43282 0,0 -0.78781,-1.02356 -7.076,-2.26949 -6.28816,-1.24592 -21.80347,-1.24722 -21.80347,-1.24722 z" id="path3880" style="fill:#000000;fill-opacity:1;stroke:#000000;stroke-width:0.5178026px;stroke-linecap:butt;stroke-linejoin:miter;stroke-opacity:1"/>
    </g>
    <g transform="matrix(0.37910144,0.92535512,-0.92535512,0.37910144,1106.5189,391.20065)" id="g3882">
      <path d="m 184.46122,952.30544 14.35668,14.84703 c 0,0 6.63406,4.94875 9.15016,5.10378 3.59646,0.22187 5.91311,-4.43508 6.74541,-5.93546 0.83231,-1.50039 2.20387,-5.02386 1.64862,-7.06582 -0.95319,-3.50549 -3.0214,-3.43282 -3.0214,-3.43282 0,0 -0.78781,-1.02356 -7.076,-2.26949 -6.28816,-1.24592 -21.80347,-1.24722 -21.80347,-1.24722 z" id="path3884" style="fill:#000000;fill-opacity:1;stroke:#000000;stroke-width:0.5178026px;stroke-linecap:butt;stroke-linejoin:miter;stroke-opacity:1"/>
    </g>
    <g transform="matrix(0.37910144,0.92535512,-0.92535512,0.37910144,1048.2046,419.52476)" id="g3886">
      <path d="m 184.46122,952.30544 14.35668,14.84703 c 0,0 6.63406,4.94875 9.15016,5.10378 3.59646,0.22187 5.91311,-4.43508 6.74541,-5.93546 0.83231,-1.50039 2.20387,-5.02386 1.64862,-7.06582 -0.95319,-3.50549 -3.0214,-3.43282 -3.0214,-3.43282 0,0 -0.78781,-1.02356 -7.076,-2.26949 -6.28816,-1.24592 -21.80347,-1.24722 -21.80347,-1.24722 z" id="path3888" style="fill:#000000;fill-opacity:1;stroke:#000000;stroke-width:0.5178026px;stroke-linecap:butt;stroke-linejoin:miter;stroke-opacity:1"/>
    </g>
  </g>
</svg>